PathFileType	4	(X/Y/Z)	D:\Research_projects\MuscleProsody\BulkSports2Dtrack\RetrackedSports2D\p1_sample60_cam1\p1_sample60_cam1_Sports2D\p1_sample60_cam1_Sports2D_px_person00.trc
DataRate	CameraRate	NumFrames	NumMarkers	Units	OrigDataRate	OrigDataStartFrame	OrigNumFrames
60	60	8	22	m	60	585	780
Frame#	Time	Hip			RHip			RKnee			RAnkle			RBigToe			RSmallToe			RHeel			LHip			LKnee			LAnkle			LBigToe			LSmallToe			LHeel			Neck			Head			Nose			RShoulder			RElbow			RWrist			LShoulder			LElbow			LWrist		
		X1	Y1	Z1	X2	Y2	Z2	X3	Y3	Z3	X4	Y4	Z4	X5	Y5	Z5	X6	Y6	Z6	X7	Y7	Z7	X8	Y8	Z8	X9	Y9	Z9	X10	Y10	Z10	X11	Y11	Z11	X12	Y12	Z12	X13	Y13	Z13	X14	Y14	Z14	X15	Y15	Z15	X16	Y16	Z16	X17	Y17	Z17	X18	Y18	Z18	X19	Y19	Z19	X20	Y20	Z20	X21	Y21	Z21	X22	Y22	Z22
585	9.75	317.412385561465	548.4566277326727	0.0	287.95776721643483	559.5245271210212	0.0	281.3428264157728	690.0220559748341	0.0	274.4776609120493	803.7847425847284	0.0	313.5514158703293	850.1233857950806	0.0	288.98135294272214	850.2321054927972	0.0	264.7460060473728	820.7339715894508	0.0	341.50328476810773	561.0079058012874	0.0	329.59335459693807	684.2738797599459	0.0	311.5796854932694	785.0894376861753	0.0	347.20047293889735	825.9136894880911	0.0	352.9120906558412	815.9817344684918	0.0	304.1604189700784	802.9677785626662	0.0	327.72052015412817	331.8643375857598	0.0	354.3441918145317	235.39741818942915	0.0	368.77329396384323	288.5587957499774	0.0	269.4388354380441	361.2642525042686	0.0	284.6255705450966	457.0227721609488	0.0	386.3286598956033	438.3959502342317	0.0	368.25154536642503	370.6786562275237	0.0	380.2227480330795	461.6174187526198	0.0	378.2577362689501	485.0816748867831	0.0
586	9.766666666666666	317.3494961918465	548.3852864067069	0.0	287.88611560736456	559.331238247615	0.0	281.21336842821023	689.8935553502484	0.0	274.5503643608825	803.8659595106186	0.0	313.41197660719433	850.0567733175262	0.0	288.693639529613	850.1602303194081	0.0	264.804356766217	820.7796527164047	0.0	341.45293108226434	560.8320097314155	0.0	329.515728843312	684.1200936138247	0.0	311.541029702893	785.0837426662549	0.0	347.2618999269002	825.9224480635814	0.0	353.0028399491906	815.8944704091596	0.0	304.0982308158785	803.0111338233912	0.0	327.86214202028043	331.8281202810719	0.0	354.45500765578316	235.3942127584774	0.0	368.7604581316946	288.53811808126324	0.0	269.3718772844497	361.19028071687706	0.0	283.68105004426417	457.2776375292743	0.0	384.12711726510145	438.5353606952008	0.0	368.41611769799096	370.7490768750413	0.0	380.5872264703189	461.62827349518096	0.0	381.1076394708216	485.11406836465454	0.0
587	9.783333333333333	317.3270717744526	548.2323162451219	0.0	287.8746194763424	558.9841730844068	0.0	281.10542316629216	689.6810379003143	0.0	274.6347978109409	803.9761409360273	0.0	313.0987543397772	850.0483769130523	0.0	288.1905980214281	850.1129545216443	0.0	264.9036408971115	820.8394449873066	0.0	341.48922450725877	560.4986124017637	0.0	329.4887264723756	683.9071328992077	0.0	311.518110310024	785.1077166948239	0.0	347.34203314058857	825.9252157156333	0.0	353.1404803961923	815.8234856564256	0.0	303.937588024409	803.1056672297696	0.0	328.0565943555764	331.74106598749563	0.0	354.71400250888337	235.40496787940208	0.0	368.7756644789353	288.54252785853214	0.0	269.31699427681383	361.0813408995387	0.0	282.02505809721436	457.4928540097715	0.0	380.07547098525407	438.93215188986966	0.0	368.5336844197409	370.81992483390917	0.0	380.89825075020974	461.55137416634307	0.0	385.8433790189189	485.13011160395604	0.0
588	9.8	317.34284148948353	547.9885434141023	0.0	287.9153942134246	558.4767758020415	0.0	281.0249112867021	689.3878136789855	0.0	274.72734205841044	804.1162991140365	0.0	312.6529377192961	850.1108480004964	0.0	287.52348209085466	850.1092118919294	0.0	265.02779212760163	820.918760526734	0.0	341.6076605017594	559.9976425816772	0.0	329.51286295523244	683.636825956519	0.0	311.5196767622631	785.1685134022895	0.0	347.43048188253994	825.9237186771057	0.0	353.3153110567169	815.7749569446788	0.0	303.68554035876883	803.2520089475111	0.0	328.3015377352391	331.59614830186524	0.0	355.1123591361086	235.41299471637925	0.0	368.82037887128206	288.5648241472595	0.0	269.27773433768107	360.9386906999617	0.0	279.72099727205375	457.6339827069328	0.0	374.1966469097878	439.5989076316925	0.0	368.61039560512194	370.89503762423493	0.0	381.22041591210643	461.4048287083911	0.0	392.2415938466376	485.19690194056136	0.0
589	9.816666666666666	317.39250658197403	547.6502367861876	0.0	287.99555505239215	557.8205040961171	0.0	280.9751355636027	689.0256479983145	0.0	274.81771834678534	804.2828526225907	0.0	312.1241903311593	850.2521813072732	0.0	286.75472690393207	850.1639567474841	0.0	265.154476968567	821.0193609676239	0.0	341.800520738741	559.3301174268178	0.0	329.5844188325321	683.3152894804563	0.0	311.5500124070775	785.2616085451575	0.0	347.5139160118547	825.9212028844294	0.0	353.50973031396273	815.7566007754407	0.0	303.35448616303864	803.4367864836705	0.0	328.5941823781144	331.39502153803346	0.0	355.63574009340283	235.40290005314245	0.0	368.8987581205213	288.59983860750896	0.0	269.262925454495	360.76434548242776	0.0	276.85947073079103	457.67286909325253	0.0	366.52813471098693	440.53196438426824	0.0	368.6600566232196	370.97743373462157	0.0	381.6197162947564	461.20900928607716	0.0	399.97957558035733	485.3582752429001	0.0
590	9.833333333333334	317.4717237759612	547.2181776013314	0.0	288.1041231236791	557.0397258293062	0.0	280.957404929564	688.6157813263849	0.0	274.8877144948262	804.4673393742945	0.0	311.55052479069775	850.4702533553937	0.0	285.93812135859923	850.2821441713656	0.0	265.26293336055073	821.1366021875162	0.0	342.0620955068969	558.5076988006784	0.0	329.6987164455249	682.9511382003449	0.0	311.6072201173335	785.364805720436	0.0	347.5819599146858	825.9254829033952	0.0	353.7045236003752	815.77492779811	0.0	302.9567375995393	803.6262577521619	0.0	328.9288274566357	331.14386692675725	0.0	356.2681656074659	235.36309791048518	0.0	369.0159776565219	288.64704826033346	0.0	269.2854561898946	360.5612269320723	0.0	273.553746143575	457.58298324037446	0.0	357.1325293653629	441.7101671068142	0.0	368.7008206039562	371.066340791012	0.0	382.1160434719037	460.9739231071856	0.0	408.656646843529	485.5326080029529	0.0
591	9.85	317.57403393001505	546.7031156822363	0.0	288.2326502509154	556.1689490843619	0.0	280.9734529165361	688.1869560507209	0.0	274.9186260538923	804.6576825798668	0.0	310.96359718433433	850.7503847387081	0.0	285.12326662137195	850.457127954549	0.0	265.33677372492156	821.2567509352109	0.0	342.3813063536914	557.5618522566693	0.0	329.85191668695757	682.5559686449483	0.0	311.68531477779067	785.4427628353592	0.0	347.6204056506591	825.939746255673	0.0	353.875453758602	815.8257175861637	0.0	302.5107260624798	803.7759659555888	0.0	329.295272957174	330.85413735045836	0.0	356.9900434963655	235.28703468373453	0.0	369.17616212067173	288.70681291093666	0.0	269.3601879530231	360.3342415780018	0.0	269.9403456647031	457.3325777422865	0.0	346.12219119935315	443.0944131960541	0.0	368.7498996974766	371.15629952213726	0.0	382.6729272459029	460.6908898217406	0.0	417.8210431041433	485.4994157596906	0.0
592	9.866666666666667	317.68865203146197	546.133868204353	0.0	288.37302108533623	555.2577865724902	0.0	281.0237651545904	687.7723378309544	0.0	274.901011653918	804.8379262304182	0.0	310.400597661691	851.0672125433106	0.0	284.3652040567366	850.6734976682063	0.0	265.3617773789256	821.357788693747	0.0	342.7340648636654	556.5527739920593	0.0	330.0379553130555	682.1473199559885	0.0	311.7785134246494	785.4606519198376	0.0	347.6144328628426	825.9580585718456	0.0	353.99628206275634	815.8923976679837	0.0	302.04782973028864	803.8497688314326	0.0	329.6806833061318	330.54673688213296	0.0	357.7745849548844	235.17547141173065	0.0	369.3805418412435	288.7742496502019	0.0	269.501078435182	360.0914134578548	0.0	266.1798155469569	456.8846888620996	0.0	333.6857235282127	444.63041218520465	0.0	368.8166760532428	371.23968294168264	0.0	383.2266354401437	460.33751817896194	0.0	427.00405710496216	485.02864078108547	0.0
